<svg width="30" height="32" viewBox="0 0 30 32" fill="none" xmlns="http://www.w3.org/2000/svg">
<path fill-rule="evenodd" clip-rule="evenodd" d="M25.2858 20.98C25.4126 20.9072 25.518 20.8024 25.5914 20.676C25.6648 20.5496 25.7037 20.4062 25.7042 20.26L25.7192 15.4375C25.7196 15.2913 25.7585 15.1479 25.832 15.0215C25.9054 14.8951 26.0108 14.7903 26.1375 14.7175L28.7517 13.2158C28.8784 13.1431 29.022 13.1049 29.1681 13.1051C29.3142 13.1054 29.4577 13.144 29.5841 13.2172C29.7106 13.2904 29.8156 13.3956 29.8885 13.5221C29.9615 13.6487 30 13.7922 30 13.9383V22.7058C30 22.8524 29.9613 22.9964 29.8878 23.1232C29.8144 23.2501 29.7088 23.3553 29.5817 23.4283L19.7158 29.095C19.5898 29.1673 19.4471 29.2055 19.3018 29.2056C19.1565 29.2058 19.0137 29.1679 18.8875 29.0958L11.145 24.6675C11.0175 24.5946 10.9114 24.4894 10.8377 24.3623C10.7639 24.2353 10.7251 24.0911 10.725 23.9442V19.5233C10.725 19.5183 10.7308 19.515 10.7358 19.5175C10.74 19.52 10.7458 19.5175 10.7458 19.5117V19.5067C10.7458 19.5033 10.7475 19.5 10.7508 19.4983L17.1275 15.835C17.1333 15.8317 17.1308 15.8225 17.1242 15.8225C17.1224 15.8225 17.1207 15.8218 17.1195 15.8205C17.1182 15.8193 17.1175 15.8176 17.1175 15.8158L17.13 11.4817C17.1306 11.3351 17.0925 11.191 17.0196 11.0638C16.9467 10.9367 16.8416 10.831 16.7148 10.7575C16.588 10.684 16.4441 10.6452 16.2975 10.645C16.1509 10.6449 16.0069 10.6834 15.88 10.7567L11.1408 13.4875C11.0144 13.5603 10.871 13.5987 10.725 13.5987C10.5791 13.5987 10.4357 13.5603 10.3092 13.4875L5.55501 10.75C5.42835 10.6771 5.28473 10.6387 5.13858 10.6388C4.99242 10.6389 4.84886 10.6775 4.72231 10.7506C4.59575 10.8237 4.49065 10.9288 4.41755 11.0554C4.34445 11.1819 4.30593 11.3255 4.30584 11.4717V19.305C4.30594 19.451 4.26768 19.5945 4.19489 19.721C4.1221 19.8476 4.01733 19.9528 3.89108 20.0261C3.76483 20.0995 3.62153 20.1384 3.47553 20.1389C3.32953 20.1394 3.18595 20.1016 3.05917 20.0292L0.42084 18.5208C0.29305 18.4478 0.186869 18.3423 0.113098 18.215C0.0393256 18.0876 0.000593649 17.943 0.000840405 17.7958L0.0241737 4.10416C0.0244913 3.9582 0.063142 3.81488 0.136257 3.68855C0.209373 3.56222 0.314388 3.45731 0.440792 3.38432C0.567195 3.31133 0.710554 3.27282 0.856518 3.27264C1.00248 3.27247 1.14593 3.31064 1.27251 3.38333L10.31 8.57416C10.4363 8.64669 10.5794 8.68485 10.725 8.68485C10.8706 8.68485 11.0137 8.64669 11.14 8.57416L20.175 3.38333C20.3018 3.31054 20.4454 3.27236 20.5916 3.27265C20.7378 3.27293 20.8813 3.31166 21.0078 3.38494C21.1343 3.45823 21.2393 3.56349 21.3122 3.69017C21.3851 3.81685 21.4235 3.96049 21.4233 4.10666V17.8017C21.4234 17.9482 21.3848 18.0921 21.3115 18.2189C21.2382 18.3458 21.1328 18.4511 21.0058 18.5242L16.2742 21.2492C16.1471 21.3224 16.0416 21.4279 15.9683 21.5551C15.8951 21.6822 15.8567 21.8263 15.857 21.973C15.8574 22.1197 15.8964 22.2638 15.9703 22.3905C16.0441 22.5173 16.1501 22.6223 16.2775 22.695L18.8875 24.1808C19.0136 24.2526 19.1563 24.2903 19.3015 24.29C19.4466 24.2897 19.5892 24.2515 19.715 24.1792L25.2858 20.98V20.98ZM25.8333 8.695C25.8335 8.84237 25.8727 8.98708 25.9469 9.11436C26.0212 9.24164 26.1279 9.34695 26.2562 9.41955C26.3844 9.49215 26.5296 9.52943 26.677 9.52761C26.8243 9.52578 26.9686 9.48491 27.095 9.40916L29.595 7.90916C29.7184 7.83521 29.8206 7.73057 29.8916 7.60542C29.9625 7.48027 29.9999 7.33887 30 7.195V4.13833C29.9997 3.99103 29.9604 3.84643 29.8861 3.71926C29.8118 3.59209 29.705 3.4869 29.5768 3.41441C29.4486 3.34191 29.3034 3.30469 29.1561 3.30656C29.0089 3.30842 28.8647 3.34928 28.7383 3.425L26.2383 4.925C26.1149 4.99895 26.0128 5.10359 25.9418 5.22874C25.8708 5.3539 25.8335 5.49529 25.8333 5.63916V8.69583V8.695Z" fill="#007FFF"/>
</svg>
