<svg width="120" height="120" viewBox="0 0 120 120" fill="none" xmlns="http://www.w3.org/2000/svg">
<path d="M104 0H16C7.16344 0 0 7.16344 0 16V104C0 112.837 7.16344 120 16 120H104C112.837 120 120 112.837 120 104V16C120 7.16344 112.837 0 104 0Z" fill="#0D1117"/>
<path d="M50.198 95V59.63H42.008V47.93H50.198V45.5C50.198 39.92 52.058 35.54 55.778 32.36C59.498 29.12 64.208 27.5 69.908 27.5C71.828 27.5 73.748 27.71 75.668 28.13V39.83C73.988 39.53 72.488 39.38 71.168 39.38C66.428 39.38 64.058 41.42 64.058 45.5V47.93H75.218V59.63H64.058V95H50.198Z" fill="white"/>
</svg>
