<svg width="17" height="28" viewBox="0 0 17 28" fill="none" xmlns="http://www.w3.org/2000/svg">
<path d="M16.004 23L16.002 4.956C16.002 4.8948 15.9861 4.83465 15.956 4.78138C15.9258 4.72812 15.8824 4.68355 15.83 4.652L8.012 0.0469998C7.97296 0.0236642 7.92961 0.0084477 7.88455 0.00226164C7.83949 -0.00392442 7.79365 -0.000952795 7.74977 0.0109986C7.70588 0.0229499 7.66486 0.0436351 7.62916 0.0718153C7.59346 0.0999955 7.56382 0.135091 7.542 0.175C7.5122 0.228492 7.4967 0.288767 7.497 0.35V8.576L0.515 4.463C0.47594 4.43986 0.43262 4.42483 0.387625 4.41881C0.34263 4.41278 0.296881 4.41588 0.25311 4.42792C0.209338 4.43996 0.16844 4.46069 0.132857 4.48888C0.0972735 4.51707 0.0677336 4.55214 0.046 4.592C0.0158506 4.6454 5.41356e-06 4.70568 0 4.767L0 22.811C0.000131074 22.8722 0.0160272 22.9323 0.0461548 22.9855C0.0762824 23.0388 0.119625 23.0834 0.172 23.115L7.989 27.72C8.02804 27.7433 8.07139 27.7586 8.11645 27.7647C8.16151 27.7709 8.20735 27.768 8.25123 27.756C8.29512 27.744 8.33614 27.7234 8.37184 27.6952C8.40754 27.667 8.43718 27.6319 8.459 27.592C8.48897 27.5382 8.50447 27.4776 8.504 27.416V19.19L15.489 23.304C15.528 23.3272 15.5713 23.3423 15.6162 23.3484C15.6612 23.3545 15.7069 23.3514 15.7507 23.3395C15.7944 23.3276 15.8353 23.3069 15.871 23.2788C15.9066 23.2507 15.9362 23.2158 15.958 23.176C15.9882 23.1226 16.004 23.0613 16.004 23ZM14.994 5.94L14.996 12.994L9.008 9.467L14.994 5.94ZM14.492 13.885L8.504 17.412V10.357L14.492 13.885ZM7.497 17.41L1.51 13.883L7.496 10.357V17.41H7.497ZM14.995 14.776L14.996 21.828L9.01 18.3L14.996 14.775L14.995 14.776ZM6.993 9.466L1.008 12.993V5.94L6.993 9.467V9.466ZM6.994 18.301L1.008 21.827V14.774L6.994 18.301ZM14.491 5.05L8.504 8.576V1.523L14.491 5.049V5.05ZM1.511 22.718L7.497 19.192V26.244L1.51 22.718H1.511Z" fill="white"/>
</svg>
