<svg width="48" height="50" viewBox="0 0 48 50" fill="none" xmlns="http://www.w3.org/2000/svg">
<path d="M21.031 11.179C20.984 11.1 20.9187 11.0335 20.8405 10.9851C20.7623 10.9367 20.6737 10.9078 20.582 10.901C20.4579 10.907 20.3381 10.9486 20.237 11.021C18.967 12.058 17.228 16.458 15.803 22.255L17.064 22.271C19.556 22.299 22.128 22.33 24.672 22.371C24 19.715 23.372 17.439 22.786 15.603C22.3677 14.0675 21.7791 12.5836 21.031 11.179V11.179Z" fill="white"/>
<path d="M23.861 0C10.683 0 0 11.116 0 24.828C0 38.54 10.683 49.654 23.861 49.654C37.039 49.654 47.722 38.539 47.722 24.828C47.722 11.117 37.038 0 23.861 0ZM41.014 25.277L41.008 25.283C40.983 25.303 40.957 25.325 40.929 25.344L40.903 25.364L40.847 25.398C40.8299 25.4092 40.8122 25.4196 40.794 25.429V25.429C40.6145 25.528 40.4129 25.5799 40.208 25.58H28.9C28.992 25.969 29.091 26.412 29.2 26.894C29.819 29.679 31.464 37.077 33.212 37.077H33.302C34.669 37.077 35.365 35.023 36.892 30.523L36.911 30.467C37.157 29.744 37.433 28.929 37.734 28.067L37.81 27.846C37.8532 27.7266 37.9369 27.6262 38.0466 27.5623C38.1562 27.4983 38.2848 27.4748 38.41 27.496C38.5366 27.5222 38.6504 27.5911 38.7321 27.6913C38.8139 27.7915 38.8587 27.9167 38.859 28.046C38.8591 28.1011 38.8513 28.156 38.836 28.209V28.209L38.772 28.43C38.613 28.966 38.444 29.696 38.248 30.54C37.338 34.466 35.962 40.396 32.434 40.396H32.408C30.129 40.377 28.768 36.585 28.182 34.965C27.092 31.938 26.265 28.71 25.473 25.586H15.073L12.913 32.774L12.88 32.748C12.7579 32.9539 12.5708 33.1134 12.3481 33.2012C12.1254 33.289 11.8798 33.3002 11.65 33.233C11.4183 33.1593 11.2163 33.0135 11.0733 32.8169C10.9302 32.6203 10.8538 32.3831 10.855 32.14V32.101L10.986 31.288C11.286 29.441 11.641 27.521 12.05 25.582H7.665L7.649 25.565C7.2572 25.4898 6.90324 25.282 6.64659 24.9766C6.38995 24.6711 6.24626 24.2866 6.23969 23.8878C6.23312 23.4889 6.36407 23.0999 6.61051 22.7861C6.85696 22.4724 7.20389 22.2531 7.593 22.165C7.7633 22.146 7.9347 22.1387 8.106 22.143H8.32C9.713 22.168 11.195 22.19 12.81 22.211C15.1 12.517 17.76 7.59 20.708 7.58C23.869 7.58 26.214 15.071 28.09 22.398L28.098 22.428C31.956 22.509 36.067 22.628 40.063 22.928L40.231 22.944C40.295 22.9457 40.3587 22.9514 40.422 22.961H40.476C40.716 23.0141 40.9358 23.1346 41.1096 23.3084C41.2834 23.4822 41.4039 23.702 41.457 23.942C41.5134 24.1837 41.5019 24.4364 41.4238 24.672C41.3456 24.9076 41.2038 25.117 41.014 25.277V25.277Z" fill="white"/>
</svg>
