<svg width="476" height="686" viewBox="0 0 476 686" fill="none" xmlns="http://www.w3.org/2000/svg">
<path fill-rule="evenodd" clip-rule="evenodd" d="M211.336 53.3328H132.669C89.2229 53.3328 54.0027 88.5531 54.0027 131.999C54.0027 175.446 89.2229 210.666 132.669 210.666H211.336V53.3328ZM211.336 -0.000518799H264.669H343.336C416.24 -0.000518799 475.333 59.0976 475.333 131.999C475.333 175.02 454.757 213.235 422.901 237.333C454.757 261.431 475.333 299.646 475.333 342.667C475.333 415.568 416.24 474.667 343.336 474.667C313.859 474.667 286.639 465.005 264.669 448.675V474.667V553.333C264.669 626.235 205.571 685.333 132.669 685.333C59.7675 685.333 0.669342 626.235 0.669342 553.333C0.669342 510.309 21.2496 472.098 53.1024 448C21.2496 423.901 0.669342 385.687 0.669342 342.667C0.669342 299.646 21.2501 261.431 53.1035 237.333C21.2501 213.235 0.669342 175.02 0.669342 131.999C0.669342 59.0976 59.7675 -0.000518799 132.669 -0.000518799H211.336ZM264.669 53.3328V210.666H343.336C386.784 210.666 422 175.446 422 131.999C422 88.5531 386.784 53.3328 343.336 53.3328H264.669ZM132.669 421.332H211.336V342.869V342.667V342.464V264H132.669C89.2229 264 54.0027 299.22 54.0027 342.667C54.0027 386.009 89.0544 421.165 132.357 421.333L132.669 421.332ZM54.0027 553.333C54.0027 509.989 89.0544 474.835 132.357 474.666L132.669 474.667H211.336V553.333C211.336 596.779 176.116 632 132.669 632C89.2229 632 54.0027 596.779 54.0027 553.333ZM264.669 342.51C264.754 299.135 299.942 264 343.336 264C386.784 264 422 299.22 422 342.667C422 386.113 386.784 421.333 343.336 421.333C299.942 421.333 264.754 386.198 264.669 342.823V342.51Z" fill="white"/>
</svg>
