<svg width="23" height="23" viewBox="0 0 23 23" xmlns="http://www.w3.org/2000/svg">
  <path
    fill-rule="evenodd"
    clip-rule="evenodd"
    d="M11.3112 23C17.5582 23 22.6224 17.9358 22.6224 11.6888C22.6224 5.44184 17.5582 0.377655 11.3112 0.377655C5.06419 0.377655 0 5.44184 0 11.6888C0 17.9358 5.06419 23 11.3112 23ZM19.0595 7.19615C17.9122 5.22734 16.0174 3.69334 13.6425 3.05697C11.2675 2.4206 8.85957 2.8017 6.88155 3.93308C4.88247 5.0765 3.32247 6.98627 2.67932 9.38654C1.3998 14.1618 4.23364 19.0702 9.00889 20.3497C10.2639 20.6859 10.6469 20.0385 11.2335 19.0469C11.71 18.2414 12.3208 17.2089 13.6425 16.2918C15.0441 15.3193 16.392 15.3231 17.4925 15.3262C18.7071 15.3296 19.6204 15.3322 19.972 14.0201C20.6152 11.6198 20.2191 9.18593 19.0595 7.19615Z"
    fill="#817FF5"
  />
</svg>